<svg xmlns="http://www.w3.org/2000/svg" viewBox="0 0 150 42"><g id="adf21b8f-cb1c-4c2f-8ed8-5e4cd9094323"><g id="ad5fc9a1-ba3d-42df-b31f-aafee61506ab" data-name="mis-logo"><path d="M72.86,33.19a2.1,2.1,0,0,0-1.34-.37h-.9v3.5h.88A2.6,2.6,0,0,0,72.75,36a1.66,1.66,0,0,0,.78-1.49A1.53,1.53,0,0,0,72.86,33.19Z" fill="none"/><path d="M112.83,33.19a2.08,2.08,0,0,0-1.34-.37h-.9v3.5h.89a2.58,2.58,0,0,0,1.24-.28,1.67,1.67,0,0,0,.79-1.49A1.54,1.54,0,0,0,112.83,33.19Z" fill="none"/><path d="M60.94,32.78c-2,0-3.41,1.49-3.41,3.92s1.37,3.9,3.41,3.9,3.42-1.48,3.42-3.9S63.07,32.78,60.94,32.78Z" fill="none"/><rect x="2.15" y="31.47" width="1.65" height="10.37" fill="#0028a0"/><path d="M14.51,37.36c0,.64,0,1.22,0,1.77h0c-.33-.5-.74-1.07-1.28-1.76l-4.48-5.9H7.13V41.84H8.78V35.66c0-.68,0-1.21,0-1.67h0c.36.49.76,1,1.28,1.71l4.66,6.14h1.46V31.47H14.51Z" fill="#0028a0"/><path d="M24,37.31c-.34.88-.58,1.57-.78,2.19h0c-.22-.65-.46-1.34-.78-2.16l-2.26-5.87h-1.8L22.51,41.9h1.34L28,31.47H26.24Z" fill="#0028a0"/><polygon points="31.86 37.26 35.22 37.26 35.22 35.86 31.86 35.86 31.86 32.87 35.23 32.87 35.7 31.47 30.21 31.47 30.21 41.84 35.75 41.84 35.75 40.44 31.86 40.44 31.86 37.26" fill="#0028a0"/><path d="M40.24,34c0-.93.77-1.24,1.55-1.24a5.34,5.34,0,0,1,2.4.61v-1.5a5.55,5.55,0,0,0-2.44-.51c-2.08,0-3.28,1.27-3.28,2.8,0,3.13,4.52,2.86,4.52,5,0,1-.9,1.37-1.86,1.37a4.16,4.16,0,0,1-2.3-.73l-.66,1.26a5.24,5.24,0,0,0,3,.87c2.08,0,3.58-1.1,3.58-2.91C44.74,35.83,40.24,36.07,40.24,34Z" fill="#0028a0"/><polygon points="46.55 32.87 49.55 32.87 49.55 41.84 51.2 41.84 51.2 32.87 54.02 32.87 54.49 31.47 46.55 31.47 46.55 32.87" fill="#0028a0"/><path d="M60.94,31.38a5,5,0,0,0-5.17,5.32,5.17,5.17,0,1,0,10.34,0A5,5,0,0,0,60.94,31.38Zm0,9.22c-2,0-3.41-1.48-3.41-3.9s1.37-3.92,3.41-3.92,3.42,1.57,3.42,3.92S63,40.6,60.94,40.6Z" fill="#0028a0"/><path d="M73.2,37.12v0a2.7,2.7,0,0,0,2-2.71,2.57,2.57,0,0,0-1.43-2.44,4.54,4.54,0,0,0-2.25-.47H69V41.84h1.65V37.69h1c.28.06.66.5,1.16,1.4l1.59,2.75h1.91l-1.78-3.05A5,5,0,0,0,73.2,37.12ZM72.75,36a2.6,2.6,0,0,1-1.25.28h-.88v-3.5h.9a2.1,2.1,0,0,1,1.34.37,1.53,1.53,0,0,1,.67,1.36A1.66,1.66,0,0,1,72.75,36Z" fill="#0028a0"/><path d="M80.29,34c0-.93.77-1.24,1.55-1.24a5.34,5.34,0,0,1,2.4.61v-1.5a5.55,5.55,0,0,0-2.44-.51c-2.08,0-3.28,1.27-3.28,2.8,0,3.13,4.52,2.86,4.52,5,0,1-.9,1.37-1.86,1.37a4.16,4.16,0,0,1-2.3-.73l-.66,1.26a5.24,5.24,0,0,0,3,.87c2.08,0,3.58-1.1,3.58-2.91C84.79,35.83,80.29,36.07,80.29,34Z" fill="#0028a0"/><path d="M93.13,34c0-.93.77-1.24,1.56-1.24a5.3,5.3,0,0,1,2.39.61v-1.5a5.55,5.55,0,0,0-2.44-.51c-2.08,0-3.28,1.27-3.28,2.8,0,3.13,4.52,2.86,4.52,5,0,1-.9,1.37-1.86,1.37a4.1,4.1,0,0,1-2.29-.73l-.66,1.26a5.19,5.19,0,0,0,3,.87c2.07,0,3.57-1.1,3.57-2.91C97.63,35.83,93.13,36.07,93.13,34Z" fill="#0028a0"/><polygon points="102.13 37.26 105.48 37.26 105.48 35.86 102.13 35.86 102.13 32.87 105.49 32.87 105.97 31.47 100.47 31.47 100.47 41.84 106.02 41.84 106.02 40.44 102.13 40.44 102.13 37.26" fill="#0028a0"/><path d="M113.18,37.12v0a2.7,2.7,0,0,0,2-2.71,2.57,2.57,0,0,0-1.43-2.44,4.52,4.52,0,0,0-2.25-.47h-2.6V41.84h1.65V37.69h1c.28.06.66.5,1.16,1.4l1.6,2.75h1.9l-1.78-3.05A5.12,5.12,0,0,0,113.18,37.12ZM112.72,36a2.58,2.58,0,0,1-1.24.28h-.89v-3.5h.9a2.08,2.08,0,0,1,1.34.37,1.54,1.54,0,0,1,.68,1.36A1.67,1.67,0,0,1,112.72,36Z" fill="#0028a0"/><path d="M122.85,37.31c-.34.88-.58,1.57-.78,2.19h0c-.22-.65-.46-1.34-.77-2.16L119,31.47h-1.79l4.17,10.43h1.33l4.17-10.43H125.1Z" fill="#0028a0"/><rect x="129.07" y="31.47" width="1.65" height="10.37" fill="#0028a0"/><path d="M138.9,40.6c-2.2,0-3.57-1.59-3.57-3.87A3.64,3.64,0,0,1,139,32.78a5.39,5.39,0,0,1,2.63.66V31.9a6.34,6.34,0,0,0-2.66-.52,5.21,5.21,0,0,0-5.38,5.4A4.85,4.85,0,0,0,138.72,42a6.4,6.4,0,0,0,3.16-.79l-.46-1.3A5,5,0,0,1,138.9,40.6Z" fill="#0028a0"/><polygon points="146.11 40.44 146.11 37.26 149.47 37.26 149.47 35.86 146.11 35.86 146.11 32.87 149.48 32.87 149.95 31.47 144.46 31.47 144.46 41.84 150 41.84 150 40.44 146.11 40.44" fill="#0028a0"/><path d="M110.74,14.66l-2.14-1.11c-1.39-.73-2.31-1.49-2.31-2.73s.75-2.36,2.8-2.36a3.48,3.48,0,0,1,3.23,3c.16.24.79.21.9-.07a9.23,9.23,0,0,0-.49-3.4,17.54,17.54,0,0,0-3.23-.52c-3.49,0-5.45,1.77-5.45,4.3,0,1.94,1.43,3.3,3.1,4.16l1.55.8c2,1,2.43,2.15,2.43,3.26,0,1.59-1.14,2.5-2.91,2.5-2.32,0-3.84-2.46-4.12-3.71a.52.52,0,0,0-.9.07,7.38,7.38,0,0,0,.72,3.57,7.22,7.22,0,0,0,4,1.07c3.43,0,5.65-1.7,5.65-4.4A5,5,0,0,0,110.74,14.66Z" fill="#0028a0"/><path d="M104.84,3.41c0-1.8-1.24-3.32-2.67-3.32a1.45,1.45,0,0,0-1.66,1.43.92.92,0,0,0,.93,1,1.91,1.91,0,0,1,1.74,1.95c0,1.42-1.35,2.39-2.64,3a.51.51,0,0,0,.25.73C103,7.48,104.84,5.81,104.84,3.41Z" fill="#0028a0"/><path d="M98.76,7.84c-1,.07-1.71.1-2.47.1s-1.59,0-2.63-.1a.5.5,0,0,0-.07.86l.73.11c.84.1.76.41.24,1.38l-1.38,2.54c-.59,1.1-1.11,1.93-1.67,2.87-.52-.9-1-1.84-1.55-2.87l-1.29-2.47C88.11,9.18,88.22,9,89,8.81l.49-.11a.51.51,0,0,0,0-.86c-1.11.07-1.9.1-2.94.1-1.25,0-2,0-3.2-.1a.58.58,0,0,0-.1.86l.9.17c.9.18,1.25.49,2,1.88l2.53,4.68c.87,1.59,1,1.87,1,2.95v1.31c0,2-.14,2.26-1.63,2.43l-.86.1c-.25.17-.22.77.06.87,1.57-.07,2.64-.1,3.75-.1s2.22,0,3.74.1c.28-.1.32-.7.07-.87l-.87-.1c-1.48-.17-1.63-.38-1.63-2.43V17.82c0-1,.08-1.35,1.32-3.33L95.67,11C96.75,9.29,96.92,9.08,98,8.87l.83-.17A.55.55,0,0,0,98.76,7.84Z" fill="#0028a0"/><path d="M79.09,8.6a15.89,15.89,0,0,0-5.27-.76c-2.8,0-4.75.07-6.69.2-.31.11-.35.77,0,.87l1,.14c.8.1.83.69.83,2.94v7.36c0,2.39-.14,2.52-1.63,2.77l-.66.1c-.24.18-.2.77.07.87,1.36-.07,2.44-.1,3.54-.1.53,0,1.18,0,1.87.06a21.74,21.74,0,0,0,2.3.11,11.64,11.64,0,0,0,5.23-1.08,7.36,7.36,0,0,0,4.19-6.68A6.77,6.77,0,0,0,79.09,8.6Zm-4.5,13.55c-2.65,0-3-1.11-3-3.32V10.57c0-.76,0-1.21.2-1.35a3.66,3.66,0,0,1,2.09-.38c3.91,0,6.89,2.22,6.89,6.48S78.74,22.15,74.59,22.15Z" fill="#0028a0"/><path d="M38.46,7.45c-5,0-8.56,3.54-8.56,8.15,0,4.37,3.19,7.87,8.56,7.87,4.88,0,8.42-3.4,8.42-8.07C46.88,11.16,44,7.45,38.46,7.45Zm.77,15c-4,.35-6-3.35-6.26-6.91-.42-4.87,2.16-6.8,4.65-7,3.8-.33,5.89,3.25,6.2,7C44.22,20.18,41.85,22.2,39.23,22.42Z" fill="#0028a0"/><path d="M57.08,7.45c-5,0-8.56,3.54-8.56,8.15,0,4.37,3.18,7.87,8.56,7.87,4.88,0,8.42-3.4,8.42-8.07C65.5,11.16,62.66,7.45,57.08,7.45Zm.76,15c-4,.35-6-3.35-6.26-6.91-.41-4.87,2.17-6.8,4.65-7,3.81-.33,5.89,3.25,6.21,7C62.84,20.18,60.47,22.2,57.84,22.42Z" fill="#0028a0"/><path d="M28.31,22.12c-1.62-.17-1.59-1.08-1.69-2.8-.28-5-.32-11.41-.39-15.09,0-2.42.25-3.05,2.43-3.3l.73-.06a.72.72,0,0,0,0-.87c-1.08.07-2.22.1-3.09.1-.69,0-1.42,0-2.6-.1-.07,1.6-1,3.5-2.63,6.65l-3.27,6.62c-.86,1.78-1.73,3.58-2.66,5.21H15c-.84-1.53-1.6-3.12-2.4-4.75l-4-8C7.62,3.5,6.75,1.35,6.89,0,5.74.1,4.81.1,4,.1S2.31.07,1.27,0a.64.64,0,0,0-.13.87l.55.06c2.11.35,2.4.8,2.32,3-.07,1.9-.21,4.85-.38,7.73C3.42,15.08,3.25,17,3,19.28S2.35,22,.89,22.12l-.76.1c-.22.17-.14.7.07.87C1.38,23,2.62,23,3.73,23c1.32,0,2.67,0,3.85.1.25-.1.28-.66,0-.87l-1.32-.1C5,22,4.74,21.46,4.74,18.89c0-2.94.14-6,.24-8.14s.21-4,.35-6.18H5.4c.76,1.6,1.49,3.4,2.22,5l3.11,6.7c.8,1.7,2.47,5.1,3.06,6.93a.4.4,0,0,0,.31.14.36.36,0,0,0,.34-.14c.63-1.59,2.2-4.85,3.75-7.9l3.09-6.07c.69-1.35,2-4.12,2.25-4.5h.07l.1,14.45c0,2.22,0,2.78-1.69,2.95l-1,.1a.64.64,0,0,0,.06.87c1.42-.07,3-.1,4.19-.1s2.68,0,4.1.1a.65.65,0,0,0,.07-.87Z" fill="#0028a0"/></g></g></svg>
